<svg width="20" height="20" viewBox="0 0 20 20" fill="none" xmlns="http://www.w3.org/2000/svg">
<g clip-path="url(#clip0_217_8)">
<path d="M6.67925 7.88679C9.28302 6.64151 11.3208 4.5283 12.4906 1.88679C11.7358 1.09434 10.7547 0.528302 9.69811 0.188679L9.13208 0C9.09434 0.0754717 9.0566 0.188684 9.0566 0.264155C8.15094 2.83019 6.30189 4.90566 3.81132 6.07547C2.07548 6.90566 0.792453 8.41509 0.188679 10.2264L0 10.7925C0.0754717 10.8302 0.188681 10.8679 0.264153 10.8679C0.981132 11.1321 1.69811 11.4717 2.37736 11.8868C3.32075 10.1887 4.83019 8.75472 6.67925 7.88679Z" fill="#EA580C"/>
<path d="M17.6226 8.03775C16.2264 10.151 14.3019 11.8491 11.9245 12.9811C10 13.8868 8.5283 15.5849 7.84906 17.6227L7.66038 18.2642C8.37736 18.9057 9.24528 19.3962 10.1887 19.6981L10.7547 19.8868C10.7925 19.8113 10.8302 19.6981 10.8302 19.6227C11.7358 17.0566 13.5849 14.9811 16.0755 13.8113C17.8113 12.9811 19.1321 11.4717 19.6981 9.66039L19.8868 9.09435C19.0943 8.86794 18.3396 8.49058 17.6226 8.03775Z" fill="#EA580C"/>
<path d="M6.15094 16.3019C7.09434 14.0377 8.83019 12.1887 11.0566 11.1321C13.0943 10.1509 14.7925 8.6415 15.9623 6.79244C15.0943 5.96225 14.3774 5.01886 13.8491 3.88678C12.4528 6.45282 10.2642 8.52829 7.58491 9.81131C6.03774 10.5283 4.79245 11.7736 4.03773 13.283C4.86792 14.0755 5.54717 15.0566 6.07547 16.1509C6.07547 16.1509 6.11321 16.2264 6.15094 16.3019Z" fill="#EA580C"/>
</g>
<defs>
<clipPath id="clip0_217_8">
<rect width="20" height="20" fill="white"/>
</clipPath>
</defs>
</svg>
