<svg width="16" height="16" viewBox="0 0 16 16" fill="none" xmlns="http://www.w3.org/2000/svg">
<g clip-path="url(#clip0_30_36)">
<path fill-rule="evenodd" clip-rule="evenodd" d="M2.91224 13.2795C6.38528 14.4486 10.1586 12.0985 10.813 8.56324C11.4666 5.02711 8.57055 1.46575 5.01508 1.33538C10.4093 -1.17709 16.1567 4.28776 14.9421 9.66428C13.7284 15.0416 6.77389 17.221 2.91224 13.2795ZM2.40756 4.95225C2.89879 4.68477 3.38244 4.36766 3.9216 4.19523C3.92833 4.73103 3.18309 5.18188 3.24954 5.71011C3.31599 6.23835 3.92833 6.70181 4.00572 7.22331C3.47664 7.10135 3.09561 6.59414 2.55729 6.4848C2.01812 6.37629 1.50755 7.12406 0.977637 7.1392C0.932216 6.60003 1.71279 6.16096 1.64886 5.62348C1.5841 5.08515 0.923805 4.67215 0.893524 4.11112C1.42091 4.34159 1.95588 4.60739 2.40756 4.95225ZM8.04316 6.29807C7.71343 6.77415 7.864 7.18714 8.12727 7.64388C7.63184 7.20144 7.19445 7.40416 6.69734 7.64388C7.07669 7.2006 7.02791 6.7691 6.78146 6.29807C7.24829 6.50751 7.5839 6.55461 8.04316 6.29807ZM5.7721 8.65324C5.66023 9.10829 5.28676 9.45063 5.1833 9.91494C5.46677 10.1706 5.60051 10.5921 5.7721 10.9243C5.0462 10.3338 4.24123 10.4078 3.50104 10.9243C3.6045 10.5424 4.06292 10.2245 4.0831 9.8241C4.10245 9.42372 3.44384 9.07969 3.50104 8.65324C4.27236 9.20839 5.00751 9.34213 5.7721 8.65324Z" fill="white"/>
</g>
<defs>
<clipPath id="clip0_30_36">
<rect width="16" height="16" fill="white"/>
</clipPath>
</defs>
</svg>
